<svg width="74" height="60" viewBox="0 0 74 60" fill="none" xmlns="http://www.w3.org/2000/svg">
<g clip-path="url(#clip0_210_205)">
<path d="M67.8027 31.3611C67.533 31.3623 67.2656 31.3212 67.016 31.2401C66.7663 31.1589 66.5393 31.0394 66.3478 30.8883L37.066 7.57439L7.78431 30.8883C7.39231 31.1554 6.88807 31.2949 6.37236 31.2791C5.85665 31.2632 5.36745 31.0931 5.00251 30.8028C4.63758 30.5124 4.42379 30.1232 4.40387 29.7129C4.38395 29.3026 4.55937 28.9014 4.89507 28.5895L35.6317 4.13437C36.0156 3.83072 36.5349 3.66028 37.0763 3.66028C37.6176 3.66028 38.137 3.83072 38.5209 4.13437L69.2575 28.5895C69.5395 28.8184 69.7304 29.1083 69.8064 29.423C69.8825 29.7377 69.8402 30.0633 69.685 30.3591C69.5298 30.6548 69.2684 30.9076 68.9336 31.0858C68.5988 31.264 68.2055 31.3598 67.8027 31.3611Z" fill="black"/>
<path d="M37.3813 16.3916L12.792 36.0209V55.8622C12.792 56.727 13.2238 57.5563 13.9923 58.1678C14.7609 58.7793 15.8033 59.1229 16.8902 59.1229H31.234V42.8194H43.5286V59.1229H57.8723C58.9593 59.1229 60.0017 58.7793 60.7702 58.1678C61.5388 57.5563 61.9706 56.727 61.9706 55.8622V35.9068L37.3813 16.3916Z" fill="black"/>
</g>
<defs>
<clipPath id="clip0_210_205">
<rect width="73.7679" height="58.6923" fill="white" transform="translate(0.182129 0.384644)"/>
</clipPath>
</defs>
</svg>
